<svg width="177" height="29" viewBox="0 0 177 29" fill="none" xmlns="http://www.w3.org/2000/svg">
<path d="M21.304 0.703999C22.264 0.703999 23.032 1.00267 23.608 1.6C24.2053 2.176 24.504 2.944 24.504 3.904V4.224C24.504 5.14133 24.4293 6.13333 24.28 7.2C24.1307 8.24533 23.9067 9.152 23.608 9.92C23.5653 10.0693 23.4587 10.176 23.288 10.24C23.1387 10.304 22.9787 10.3147 22.808 10.272L20.28 9.76C20.1093 9.71733 19.9813 9.62133 19.896 9.472C19.832 9.30133 19.8213 9.13067 19.864 8.96C20.0987 8.32 20.2693 7.62667 20.376 6.88C20.504 6.112 20.568 5.46133 20.568 4.928V4.608C20.568 4.18133 20.3547 3.968 19.928 3.968H2.84C2.41333 3.968 2.2 3.75467 2.2 3.328V1.344C2.2 0.917332 2.41333 0.703999 2.84 0.703999H21.304ZM25.368 11.488C25.7947 11.488 26.008 11.7013 26.008 12.128V14.144C26.008 14.5707 25.7947 14.784 25.368 14.784H15.384V17.408C15.384 17.472 15.3627 17.568 15.32 17.696L15.64 17.824C15.9813 17.9733 16.088 18.2293 15.96 18.592C15.8533 18.912 15.7147 19.232 15.544 19.552C15.3733 19.872 15.1813 20.1813 14.968 20.48C15.7147 20.9707 16.504 21.4293 17.336 21.856C18.168 22.2613 19.0107 22.6453 19.864 23.008C20.7173 23.3493 21.56 23.6587 22.392 23.936C23.2453 24.2133 24.0453 24.448 24.792 24.64C25.1973 24.7467 25.336 25.0027 25.208 25.408L24.568 27.488C24.44 27.8293 24.1947 27.9573 23.832 27.872C23 27.68 22.104 27.424 21.144 27.104C20.184 26.784 19.2133 26.4107 18.232 25.984C17.2507 25.5573 16.28 25.088 15.32 24.576C14.3813 24.064 13.5067 23.52 12.696 22.944C11.992 23.5627 11.2347 24.1387 10.424 24.672C9.63467 25.2053 8.81333 25.6853 7.96 26.112C7.128 26.5387 6.296 26.9013 5.464 27.2C4.632 27.4987 3.85333 27.7227 3.128 27.872C2.70133 27.9787 2.43467 27.8507 2.328 27.488L1.688 25.472C1.53867 25.088 1.64533 24.8427 2.008 24.736C2.98933 24.5227 3.98133 24.2027 4.984 23.776C5.98667 23.328 6.936 22.816 7.832 22.24C8.728 21.6427 9.53867 20.992 10.264 20.288C11.0107 19.5627 11.608 18.816 12.056 18.048C11.6293 18.048 11.416 17.8347 11.416 17.408V14.784H1.432C1.00533 14.784 0.792 14.5707 0.792 14.144V12.128C0.792 11.7013 1.00533 11.488 1.432 11.488H25.368ZM34.9485 7.2C34.9485 7.62667 35.1618 7.84 35.5885 7.84H52.8365C53.2632 7.84 53.4765 8.05333 53.4765 8.48V10.4C53.4765 10.8267 53.2632 11.04 52.8365 11.04H44.1645V13.696H54.1805C54.6072 13.696 54.8205 13.9093 54.8205 14.336V16.288C54.8205 16.7147 54.6072 16.928 54.1805 16.928H30.2445C29.8178 16.928 29.6045 16.7147 29.6045 16.288V14.336C29.6045 13.9093 29.8178 13.696 30.2445 13.696H40.2605V11.04H34.1805C33.2205 11.04 32.4418 10.752 31.8445 10.176C31.2685 9.57867 30.9805 8.8 30.9805 7.84V3.68C30.9805 2.72 31.2685 1.952 31.8445 1.376C32.4418 0.778666 33.2205 0.48 34.1805 0.48H52.6445C53.0712 0.48 53.2845 0.693333 53.2845 1.12V3.072C53.2845 3.47733 53.0712 3.68 52.6445 3.68H35.5885C35.1618 3.68 34.9485 3.89333 34.9485 4.32V7.2ZM53.4125 27.2C53.4125 27.6267 53.1992 27.84 52.7725 27.84H50.1165C49.6898 27.84 49.4765 27.6267 49.4765 27.2V22.88C49.4765 22.4533 49.2632 22.24 48.8365 22.24H31.5245C31.0978 22.24 30.8845 22.0267 30.8845 21.6V19.68C30.8845 19.2533 31.0978 19.04 31.5245 19.04H50.2125C51.1725 19.04 51.9405 19.3387 52.5165 19.936C53.1138 20.512 53.4125 21.28 53.4125 22.24V27.2ZM85.3045 0.639999C85.3045 0.213332 85.5178 -1.90735e-06 85.9445 -1.90735e-06H88.6325C89.0592 -1.90735e-06 89.2725 0.213332 89.2725 0.639999V11.168H91.9925C92.4192 11.168 92.6325 11.3813 92.6325 11.808V13.984C92.6325 14.4107 92.4192 14.624 91.9925 14.624H89.2725V27.2C89.2725 27.6267 89.0592 27.84 88.6325 27.84H85.9445C85.5178 27.84 85.3045 27.6267 85.3045 27.2V0.639999ZM74.0085 26.912C72.7285 26.912 71.5978 26.6133 70.6165 26.016C69.6352 25.4187 68.8138 24.5547 68.1525 23.424C67.5125 22.272 67.0218 20.8747 66.6805 19.232C66.3605 17.5893 66.2005 15.712 66.2005 13.6C66.2005 11.488 66.3605 9.61067 66.6805 7.968C67.0218 6.32533 67.5125 4.93867 68.1525 3.808C68.8138 2.656 69.6352 1.78133 70.6165 1.184C71.5978 0.586665 72.7285 0.287998 74.0085 0.287998C75.2885 0.287998 76.4192 0.586665 77.4005 1.184C78.3818 1.78133 79.1925 2.656 79.8325 3.808C80.4938 4.93867 80.9845 6.32533 81.3045 7.968C81.6458 9.61067 81.8165 11.488 81.8165 13.6C81.8165 15.712 81.6458 17.5893 81.3045 19.232C80.9845 20.8747 80.4938 22.272 79.8325 23.424C79.1925 24.5547 78.3818 25.4187 77.4005 26.016C76.4192 26.6133 75.2885 26.912 74.0085 26.912ZM74.0085 23.648C75.3952 23.648 76.4085 22.784 77.0485 21.056C77.6885 19.3067 78.0085 16.8213 78.0085 13.6C78.0085 10.3787 77.6885 7.904 77.0485 6.176C76.4085 4.42666 75.3952 3.552 74.0085 3.552C72.6218 3.552 71.6085 4.42666 70.9685 6.176C70.3285 7.904 70.0085 10.3787 70.0085 13.6C70.0085 16.8213 70.3285 19.3067 70.9685 21.056C71.6085 22.784 72.6218 23.648 74.0085 23.648ZM107.557 0.735998C108.517 0.735998 109.285 1.03466 109.861 1.632C110.458 2.208 110.757 2.976 110.757 3.936C110.736 6.90133 110.384 9.55733 109.701 11.904C109.04 14.2293 108.144 16.3093 107.013 18.144C105.882 19.9573 104.57 21.536 103.077 22.88C101.605 24.224 100.058 25.3867 98.437 26.368C98.0103 26.624 97.6903 26.592 97.477 26.272L96.037 24.224C95.7597 23.7973 95.845 23.456 96.293 23.2C98.277 22.048 100.058 20.6507 101.637 19.008C103.216 17.3653 104.453 15.3813 105.349 13.056H95.781C95.3543 13.056 95.141 12.8427 95.141 12.416V10.336C95.141 9.90933 95.3543 9.696 95.781 9.696H106.341C106.512 8.928 106.64 8.128 106.725 7.296C106.81 6.464 106.853 5.6 106.853 4.704C106.853 4.27733 106.64 4.064 106.213 4.064H96.453C96.0263 4.064 95.813 3.85067 95.813 3.424V1.376C95.813 0.949332 96.0263 0.735998 96.453 0.735998H107.557ZM114.117 0.639999C114.117 0.213332 114.33 -1.90735e-06 114.757 -1.90735e-06H117.445C117.872 -1.90735e-06 118.085 0.213332 118.085 0.639999V11.168H120.805C121.232 11.168 121.445 11.3813 121.445 11.808V13.984C121.445 14.4107 121.232 14.624 120.805 14.624H118.085V27.2C118.085 27.6267 117.872 27.84 117.445 27.84H114.757C114.33 27.84 114.117 27.6267 114.117 27.2V0.639999ZM138.097 0.768C138.097 0.341332 138.311 0.127998 138.738 0.127998H141.17C141.596 0.127998 141.81 0.341332 141.81 0.768V26.88C141.81 27.3067 141.596 27.52 141.17 27.52H138.738C138.311 27.52 138.097 27.3067 138.097 26.88V14.112H133.586C133.159 14.112 132.946 13.8987 132.946 13.472V11.488C132.946 11.0613 133.159 10.848 133.586 10.848H138.097V0.768ZM144.402 0.639999C144.402 0.213332 144.615 -1.90735e-06 145.042 -1.90735e-06H147.538C147.964 -1.90735e-06 148.178 0.213332 148.178 0.639999V27.2C148.178 27.6267 147.964 27.84 147.538 27.84H145.042C144.615 27.84 144.402 27.6267 144.402 27.2V0.639999ZM124.338 3.84C124.338 2.88 124.626 2.112 125.202 1.536C125.799 0.938666 126.578 0.639999 127.538 0.639999H134.706C135.132 0.639999 135.346 0.853333 135.346 1.28V3.264C135.346 3.69067 135.132 3.904 134.706 3.904H128.754C128.327 3.904 128.114 4.11733 128.114 4.544V22.624C128.114 23.0507 128.327 23.264 128.754 23.264H129.234C129.554 23.264 129.938 23.232 130.385 23.168C130.855 23.104 131.335 23.008 131.826 22.88C132.338 22.752 132.86 22.592 133.394 22.4C133.927 22.208 134.439 21.9947 134.93 21.76C135.1 21.6747 135.26 21.664 135.41 21.728C135.58 21.792 135.687 21.9093 135.73 22.08L136.242 24.032C136.327 24.3733 136.188 24.64 135.826 24.832C134.759 25.3867 133.532 25.8133 132.146 26.112C130.78 26.4107 129.404 26.56 128.018 26.56H127.538C126.578 26.56 125.799 26.2613 125.202 25.664C124.626 25.088 124.338 24.32 124.338 23.36V3.84ZM172.382 0.639999C172.382 0.213332 172.595 -1.90735e-06 173.022 -1.90735e-06H175.71C176.137 -1.90735e-06 176.35 0.213332 176.35 0.639999V27.2C176.35 27.6267 176.137 27.84 175.71 27.84H173.022C172.595 27.84 172.382 27.6267 172.382 27.2V0.639999ZM156.51 26.56C155.55 26.56 154.771 26.2613 154.174 25.664C153.598 25.088 153.31 24.32 153.31 23.36V3.84C153.31 2.88 153.598 2.112 154.174 1.536C154.771 0.938666 155.55 0.639999 156.51 0.639999H165.022C165.982 0.639999 166.75 0.938666 167.326 1.536C167.923 2.112 168.222 2.88 168.222 3.84V23.36C168.222 24.32 167.923 25.088 167.326 25.664C166.75 26.2613 165.982 26.56 165.022 26.56H156.51ZM157.15 22.72C157.15 23.1467 157.363 23.36 157.79 23.36H163.742C164.169 23.36 164.382 23.1467 164.382 22.72V4.48C164.382 4.05333 164.169 3.84 163.742 3.84H157.79C157.363 3.84 157.15 4.05333 157.15 4.48V22.72Z" fill="#CCCCCC"/>
</svg>
